<?xml version="1.0" standalone="no"?>
<!DOCTYPE svg PUBLIC "-//W3C//DTD SVG 20010904//EN"
 "http://www.w3.org/TR/2001/REC-SVG-20010904/DTD/svg10.dtd">
<svg version="1.0" xmlns="http://www.w3.org/2000/svg"
 width="700.000000pt" height="700.000000pt" viewBox="0 0 700.000000 700.000000"
 preserveAspectRatio="xMidYMid meet">
<metadata>
Created by potrace 1.14, written by Peter Selinger 2001-2017
</metadata>
<g transform="translate(0.000000,700.000000) scale(0.100000,-0.100000)"
fill="#000000" stroke="none">
<path d="M1949 6996 c-2 -2 -35 -6 -74 -10 -208 -19 -454 -86 -651 -177 -487
-224 -876 -636 -1076 -1139 -71 -177 -108 -328 -137 -555 -12 -88 -13 -3164
-1 -3225 4 -25 11 -67 14 -95 25 -199 95 -424 198 -630 203 -410 539 -745 947
-945 139 -69 327 -140 409 -155 51 -9 74 -14 92 -20 10 -3 31 -7 46 -10 61 -8
110 -17 134 -23 14 -3 738 -7 1610 -8 1479 -3 1594 -1 1715 15 545 76 1018
342 1360 766 31 39 63 78 71 88 8 9 14 19 14 22 0 3 15 26 34 52 67 96 159
275 209 408 27 74 75 228 82 267 3 13 7 34 10 48 43 203 43 206 43 1830 0
1684 1 1644 -58 1896 -63 269 -204 563 -379 788 -51 66 -51 67 -132 152 -257
270 -529 443 -874 559 -87 29 -276 74 -340 81 -22 2 -51 7 -65 11 -25 7 -3193
16 -3201 9z"/>
</g>
</svg>
